<?xml version="1.0" encoding="iso-8859-1"?>
<!-- Generator: Adobe Illustrator 19.0.0, SVG Export Plug-In . SVG Version: 6.00 Build 0)  -->
<svg version="1.1" id="Capa_1" xmlns="http://www.w3.org/2000/svg" xmlns:xlink="http://www.w3.org/1999/xlink" x="0px" y="0px"
	 viewBox="0 0 512.001 512.001" style="enable-background:new 0 0 512.001 512.001;" xml:space="preserve">
<path style="fill:#FFCDAC;" d="M165.893,106.004L165.893,106.004c-24.3,0-43.999-19.698-43.999-43.999v-8
	c0-24.3,19.699-43.999,43.999-43.999l0,0c24.3,0,43.999,19.698,43.999,43.999v8C209.892,86.306,190.192,106.004,165.893,106.004z"/>
<g>
	<path style="fill:#BEBEBE;" d="M10,501.994h77.985c8.284,0,15-6.716,15-15v-24.999H49.999C27.907,461.995,10,479.904,10,501.994
		L10,501.994z"/>
	<path style="fill:#BEBEBE;" d="M313.245,501.994H235.26c-8.284,0-15-6.716-15-15v-24.999h52.986
		C295.336,461.995,313.245,479.904,313.245,501.994L313.245,501.994z"/>
</g>
<path style="fill:#F0F0FA;" d="M291.411,128.004c-11.603,0-22.873-3.871-32.027-11c-9.154-7.129-20.424-11-32.027-11h-61.464H67.129
	c-16.762,0-31.868,10.108-38.263,25.601l0,0c-11.246,27.248,8.785,57.185,38.263,57.185h44.27v67.336h108.988v-70.049l2.331,3.425
	h142.538v-61.498L291.411,128.004L291.411,128.004z"/>
<path style="fill:#FFCDAC;" d="M177.979,185.383h-8.051c-10.493,0-19-8.507-19-19v-15.158c0-10.493,8.507-19,19-19h8.051
	c10.493,0,19,8.507,19,19v15.158C196.979,176.877,188.472,185.383,177.979,185.383z"/>
<polygon style="fill:#737882;" points="70.056,461.995 111.398,256.128 220.386,256.128 261.701,461.995 "/>
<polygon style="fill:#78D2FA;" points="448.002,129.156 502,158.805 448.002,188.453 "/>
<path style="fill:#F5C86E;" d="M318.036,279.261c66.526-66.526,66.526-174.387,0-240.913l26.902-26.902
	c81.384,81.384,81.384,213.333,0,294.717L318.036,279.261z"/>
<path d="M15.806,150.791c0.353,5.284,4.749,9.335,9.968,9.335c0.224,0,0.449-0.007,0.675-0.022c5.511-0.367,9.68-5.132,9.313-10.643
	l-0.019-0.307c-0.294-5.516-5.011-9.751-10.519-9.453c-5.515,0.294-9.747,5.003-9.453,10.518L15.806,150.791z"/>
<path d="M238.166,372.878c-1.86,1.86-2.93,4.439-2.93,7.07c0,2.64,1.07,5.21,2.93,7.08c1.86,1.859,4.44,2.92,7.07,2.92
	s5.21-1.061,7.07-2.92c1.86-1.87,2.93-4.44,2.93-7.08c0-2.631-1.07-5.21-2.93-7.07c-1.86-1.86-4.44-2.93-7.07-2.93
	S240.027,371.018,238.166,372.878z"/>
<path d="M506.813,150.039l-53.999-29.648c-3.097-1.701-6.863-1.639-9.906,0.159c-3.042,1.8-4.907,5.072-4.907,8.606v19.648h-22.258
	c-2.444-54.581-24.851-105.545-63.734-144.428c-3.905-3.903-10.237-3.904-14.142,0l-6.076,6.076
	c-0.839,0.451-1.628,1.027-2.336,1.734L243.48,98.161c-5.239-1.412-10.663-2.157-16.123-2.157h-19.553
	c7.551-9.29,12.088-21.122,12.088-33.999v-8c0-29.774-24.223-53.999-53.999-53.999s-53.999,24.224-53.999,53.999v8
	c0,12.877,4.537,24.709,12.088,33.999H67.128c-12.965,0-25.351,4.847-34.878,13.646c-4.057,3.747-4.308,10.074-0.561,14.131
	c1.971,2.134,4.655,3.215,7.348,3.215c2.426,0,4.86-0.878,6.783-2.654c5.821-5.377,13.389-8.338,21.308-8.338h98.764h59.743
	l-21.908,21.907c-4.833-9.308-14.557-15.686-25.749-15.686h-8.051c-10.161,0-19.111,5.257-24.291,13.189
	c-1.711-3.055-4.975-5.123-8.726-5.123H84.912c-5.523,0-10,4.478-10,10s4.477,10,10,10h41.999v28.499H67.128
	c-7.679,0-14.76-2.619-20.478-7.573c-4.175-3.618-10.49-3.164-14.106,1.01s-3.164,10.489,1.01,14.105
	c9.272,8.034,21.195,12.458,33.574,12.458h34.27v56.343L61.865,451.996H49.999C22.429,451.996,0,474.425,0,501.994
	c0,5.522,4.477,10,10,10h77.985c13.785,0,24.999-11.215,24.999-24.999v-15h97.276v15c0,13.785,11.215,24.999,24.999,24.999h77.985
	c5.523,0,10-4.478,10-10c0-27.569-22.429-49.999-49.999-49.999h-3.352l-7.35-36.624c-1.087-5.415-6.356-8.921-11.772-7.837
	c-5.415,1.087-8.923,6.357-7.837,11.772l6.561,32.688h-81.33L124.05,266.126h35.459v17.229c0,5.522,4.477,10,10,10s10-4.478,10-10
	v-17.229h7.471v62.871c0,5.522,4.477,10,10,10s10-4.478,10-10v-62.871h5.217l16.138,80.413c1.087,5.415,6.358,8.921,11.772,7.837
	c5.415-1.087,8.923-6.357,7.837-11.772l-17.555-87.472v-48.779l99.068,99.068c0.708,0.708,1.498,1.284,2.337,1.735l6.076,6.075
	c1.953,1.952,4.512,2.929,7.071,2.929s5.119-0.977,7.071-2.929c38.884-38.884,61.291-89.849,63.734-144.43h22.258v19.649
	c0,3.534,1.866,6.807,4.907,8.606c1.569,0.928,3.33,1.394,5.093,1.394c1.656,0,3.313-0.411,4.813-1.234l53.999-29.649
	c3.199-1.757,5.187-5.116,5.187-8.766S510.011,151.795,506.813,150.039z M131.894,62.005v-8c0-18.748,15.252-33.999,33.999-33.999
	s33.999,15.252,33.999,33.999v8c0,18.748-15.252,33.999-33.999,33.999S131.894,80.753,131.894,62.005z M317.527,52.398
	c17.192,19.355,28.885,41.903,35.081,65.606h-61.197c-9.33,0-18.522-3.157-25.883-8.89c-0.889-0.693-1.803-1.35-2.727-1.991
	L317.527,52.398z M221.119,168.804h136.416c-0.221,3.575-0.562,7.143-1.021,10.699h-73.509c-5.523,0-10,4.478-10,10s4.477,10,10,10
	h69.629c-6.189,23.741-17.892,46.327-35.107,65.709L221.119,168.804z M253.241,124.894c10.856,8.454,24.412,13.11,38.171,13.11
	h65.09c0.466,3.59,0.81,7.192,1.034,10.801H221.12l27.199-27.198C250.03,122.585,251.679,123.678,253.241,124.894z M160.928,151.226
	c0-4.963,4.038-9,9-9h8.051c4.962,0,9,4.037,9,9v15.157c0,4.963-4.038,9-9,9h-8.051c-4.962,0-9-4.037-9-9V151.226z M92.985,486.995
	c0,2.757-2.243,5-5,5H21.712c4.127-11.641,15.249-19.999,28.285-19.999h20.058h22.928V486.995z M273.246,471.995
	c13.038,0,24.158,8.359,28.286,19.999H235.26c-2.757,0-5-2.243-5-5v-15H273.246z M102.984,451.996H82.265l29.948-149.135
	l35.397,149.135H102.984z M210.388,246.128h-88.989v-47.337h15.513c5.523,0,10-4.478,10-10v-4.797
	c5.305,6.917,13.647,11.388,23.017,11.388h8.051c11.193,0,20.917-6.378,25.749-15.686l6.659,6.659V246.128z M344.762,291.845
	l-12.778-12.777c22.403-25.008,36.587-54.82,42.574-85.912c0.445-1.133,0.698-2.363,0.698-3.653c0-0.051-0.007-0.1-0.008-0.151
	c1.646-9.657,2.507-19.421,2.58-29.192c0.06-0.444,0.102-0.894,0.102-1.355s-0.042-0.911-0.102-1.355
	c-0.073-9.779-0.935-19.55-2.583-29.215c0.002-0.077,0.012-0.152,0.012-0.23c0-1.333-0.266-2.603-0.74-3.766
	c-6.01-31.015-20.18-60.746-42.532-85.697l12.778-12.777C412.927,101.083,412.927,216.525,344.762,291.845z M458.001,171.555
	v-25.501l23.222,12.751L458.001,171.555z"/>
<g>
</g>
<g>
</g>
<g>
</g>
<g>
</g>
<g>
</g>
<g>
</g>
<g>
</g>
<g>
</g>
<g>
</g>
<g>
</g>
<g>
</g>
<g>
</g>
<g>
</g>
<g>
</g>
<g>
</g>
</svg>
