<svg xmlns="http://www.w3.org/2000/svg" viewBox="0 0 496 496">
  <path d="M339.0977 480l2.3671-7.1133c6.543-19.6054 9.9336-39.9844 10.3594-60.621 24.0781-4.465 47.375-12.8829 68.7695-25.1055l15.4961-8.8555-22.5312-28.168c-9.6719-12.0976-17.4961-25.5039-23.2227-39.8476l-26.2968-65.7383c-8.1836-20.461-20.1172-38.789-35.2383-54.7344l10.4453-41.7695c.3789-1.4961.6484-3.0078.9766-4.504L352 155.3126l75.7031-75.7031-71.7812-62.8086L298.1914.3047 200 0l-59.9219 16.8008L68.297 79.6094 144 155.3125l11.7852-11.7852c.328 1.504.6054 3.0157.9843 4.5118l10.4375 41.7695c-15.1172 15.9453-27.0547 34.2617-35.2383 54.7266l-26.2968 65.746c-5.7344 14.3516-13.5508 27.7579-23.2227 39.8477L59.922 378.297l15.4922 8.8554c21.3867 12.2149 44.6836 20.6407 68.7695 25.1055.4258 20.6367 3.8164 41.0156 10.3594 60.6211L156.9023 480H0v16h496v-16zm-20.6485-80.1055l-.832-3.8867c-12.7149-59.3437-19.8399-120.039-21.3047-180.75 17.039 23.4297 29.3828 50.3086 35.8945 78.543 7.9922 34.6328 24.1368 67.3594 46.6563 94.8476-19.414 6.7657-39.8008 10.5899-60.414 11.2461zM248 272c-20.039 0-33.9531-13.2813-34.3203-13.6406a970.996 970.996 0 001.4648-27.3672C223.0977 235.5273 234.3828 240 248 240s24.9023-4.4727 32.8555-9.0078c.3593 9.1289.8476 18.2539 1.4648 27.3672-.25.25-13.9531 13.6406-34.3203 13.6406zm35.754 5.1914c.9022 10.4648 1.9882 20.914 3.2304 31.3438C280.5195 312.6406 266.414 320 248 320s-32.5195-7.3594-38.9844-11.4648c1.2422-10.4297 2.3281-20.879 3.2305-31.3438C220.2305 282.2656 232.5508 288 248 288s27.7695-5.7344 35.754-10.8086zM248 224c-15.8086 0-27.711-8.207-32.2656-11.8867.082-4.043.1289-8.0742.1601-12.1133h64.211c.0312 4.0469.078 8.0977.1601 12.1367C275.7696 215.8164 263.9844 224 248 224zm-8-132.754l-70.4883 38.4493c-.9687-6.7422-1.5117-13.543-1.5117-20.3516v-.5898l72-39.2734zm0 18.2345V184h-57.7617l-9.4531-37.8633zm-33.1367 216.2968C216.1836 330.6328 230.457 336 248 336s31.8164-5.3672 41.1367-10.2227c1.3985 10.2852 3 20.5508 4.7266 30.7813C285.457 360.8789 268.5039 368 248 368c-20.375 0-37.4063-7.1445-45.8555-11.457 1.7188-10.2305 3.3203-20.4805 4.7188-30.7657zM256 184v-74.5195l67.2227 36.664L313.7617 184zm0-92.754V69.4806l72 39.2734v.5898c0 6.8086-.543 13.6094-1.5117 20.3516zm93.168 159.2423l26.2968 65.7344c6.3204 15.8164 14.9258 30.5859 25.582 43.914l10.8555 13.5586c-5.6875 3.2149-11.543 6.0664-17.496 8.7031l-2.1016-2.5273c-21.5508-25.8555-36.9453-56.8633-44.5117-89.6719-7.5547-32.711-22.418-63.6953-43.0157-90.1992h11.6797c14.086 14.6484 25.1524 31.5664 32.711 50.4883zM344 91.7773c0-18.6796 3.7617-37.3632 10.8633-54.6406l23.832 20.8555L344 92.6875zm-.1914 23.7266l46.9531-46.9531 13.5352 11.8398L352 132.6875l-8.7422-8.7422c.254-2.8164.4453-5.625.5508-8.4414zM298.328 16.9844l42.504 12.1445c-8.2462 19.3516-12.625 40.375-12.793 61.414l-66.8164-36.4452zM276.6875 16L248 44.6875 219.3125 16zM141.1367 37.1367C148.2383 54.4141 152 73.0977 152 91.7773v.9102l-34.6953-34.6953zM144 132.6875L91.7031 80.3906l13.5352-11.8398 46.9531 46.9531c.1133 2.8164.2969 5.6328.5625 8.4414zm11.168-103.5586l42.5039-12.1445 37.1133 37.1133-66.8165 36.4453c-.168-21.039-4.5546-42.0625-12.8007-61.414zm-53.582 353.2695c-5.9454-2.6367-11.8087-5.4882-17.4962-8.703l10.8555-13.5587c10.6563-13.3281 19.2617-28.1054 25.582-43.914l26.297-65.7344c7.5585-18.914 18.625-35.832 32.7109-50.4805h11.6796c-20.5976 26.504-35.4609 57.4883-43.0156 90.1992-7.5664 32.8086-22.961 63.8164-44.5117 89.672zm15.5585 6.2422c22.5118-27.4883 38.6563-60.2148 46.6485-94.8476 6.5117-28.2344 18.8554-55.1133 35.8945-78.547-1.457 60.715-8.5898 121.4102-21.3047 180.754l-.832 3.8867c-20.6133-.6484-41-4.4804-60.4063-11.246zm97.1524 79.1914L210.2383 480h-36.4766l-4.0586-12.168c-2.9336-8.8086-5.1172-17.8007-6.7265-26.8945C170.5859 444.7109 180.375 448 192 448s21.414-3.289 29.0234-7.0625c-1.6093 9.086-3.793 18.0781-6.7265 26.8945zM224 408c0 4.2734-.2227 8.5195-.5117 12.7617C218.4648 424.672 207.078 432 192 432c-14.9102 0-26.4063-7.3516-31.4883-11.2734-.1367-2.0313-.1758-4.0782-.246-6.1172C168.1366 415.4648 176.0468 416 184 416h6.4727l3.5585-16.6328c1.879-8.7735 3.6329-17.5742 5.2735-26.3985 6.246 2.879 14.6797 6.1094 24.6953 8.336zm3.0977 72l2.3671-7.1133C236.4648 451.9297 240 430.1055 240 408v-24.336c2.6172.1915 5.2656.336 8 .336s5.3828-.1445 8-.336V408c0 22.1055 3.5352 43.9297 10.5273 64.8867l2.375 7.1133zm99.1992-12.168L322.2383 480h-36.4766l-4.0586-12.168c-2.9336-8.8086-5.1172-17.8007-6.7265-26.8945C282.5859 444.7109 292.375 448 304 448s21.414-3.289 29.0234-7.0625c-1.6093 9.086-3.793 18.0781-6.7265 26.8945zm9.1914-47.0703C330.4648 424.672 319.078 432 304 432c-14.9102 0-26.4063-7.3516-31.4883-11.2734C272.2227 416.496 272 412.2578 272 408v-26.6953c10.0234-2.2266 18.457-5.4649 24.6953-8.336 1.6406 8.8243 3.3945 17.6329 5.2734 26.3985L305.5273 416H312c7.9531 0 15.8633-.5352 23.7344-1.3984-.0703 2.0546-.1094 4.1093-.2461 6.1601zm0 0"/>
</svg>
