<svg height="496pt" viewBox="0 0 496 496" width="496pt" xmlns="http://www.w3.org/2000/svg"><path d="m339.097656 480 2.367188-7.113281c6.542968-19.605469 9.933594-39.984375 10.359375-60.621094 24.078125-4.464844 47.375-12.882813 68.769531-25.105469l15.496094-8.855468-22.53125-28.167969c-9.671875-12.097657-17.496094-25.503907-23.222656-39.847657l-26.296876-65.738281c-8.183593-20.460937-20.117187-38.789062-35.238281-54.734375l10.445313-41.769531c.378906-1.496094.648437-3.007813.976562-4.503906l11.777344 11.769531 75.703125-75.703125-71.78125-62.808594-57.730469-16.496093-98.191406-.304688-59.921875 16.800781-71.78125 62.808594 75.703125 75.703125 11.785156-11.785156c.328125 1.503906.605469 3.015625.984375 4.511718l10.4375 41.769532c-15.117187 15.945312-27.054687 34.261718-35.238281 54.726562l-26.296875 65.746094c-5.734375 14.351562-13.550781 27.757812-23.222656 39.847656l-22.527344 28.167969 15.492187 8.855469c21.386719 12.214844 44.683594 20.640625 68.769532 25.105468.425781 20.636719 3.816406 41.015626 10.359375 60.621094l2.359375 7.121094h-156.902344v16h496v-16zm-20.648437-80.105469-.832031-3.886719c-12.714844-59.34375-19.839844-120.039062-21.304688-180.75 17.039062 23.429688 29.382812 50.308594 35.894531 78.542969 7.992188 34.632813 24.136719 67.359375 46.65625 94.847657-19.414062 6.765624-39.800781 10.589843-60.414062 11.246093zm-70.449219-127.894531c-20.039062 0-33.953125-13.28125-34.320312-13.640625.617187-9.121094 1.105468-18.238281 1.464843-27.367187 7.953125 4.535156 19.238281 9.007812 32.855469 9.007812s24.902344-4.472656 32.855469-9.007812c.359375 9.128906.847656 18.253906 1.464843 27.367187-.25.25-13.953124 13.640625-34.320312 13.640625zm35.753906 5.191406c.902344 10.464844 1.988282 20.914063 3.230469 31.34375-6.464844 4.105469-20.570313 11.464844-38.984375 11.464844s-32.519531-7.359375-38.984375-11.464844c1.242187-10.429687 2.328125-20.878906 3.230469-31.34375 7.984375 5.074219 20.304687 10.808594 35.753906 10.808594s27.769531-5.734375 35.753906-10.808594zm-35.753906-53.191406c-15.808594 0-27.710938-8.207031-32.265625-11.886719.082031-4.042969.128906-8.074219.160156-12.113281h64.210938c.03125 4.046875.078125 8.097656.160156 12.136719-4.496094 3.679687-16.28125 11.863281-32.265625 11.863281zm-8-132.753906-70.488281 38.449218c-.96875-6.742187-1.511719-13.542968-1.511719-20.351562v-.589844l72-39.273437zm0 18.234375v74.519531h-57.761719l-9.453125-37.863281zm-33.136719 216.296875c9.320313 4.855468 23.59375 10.222656 41.136719 10.222656s31.816406-5.367188 41.136719-10.222656c1.398437 10.285156 3 20.550781 4.726562 30.78125-8.40625 4.320312-25.359375 11.441406-45.863281 11.441406-20.375 0-37.40625-7.144531-45.855469-11.457031 1.71875-10.230469 3.320313-20.480469 4.71875-30.765625zm49.136719-141.777344v-74.519531l67.222656 36.664062-9.460937 37.855469zm0-92.753906v-21.765625l72 39.273437v.589844c0 6.808594-.542969 13.609375-1.511719 20.351562zm93.167969 159.242187 26.296875 65.734375c6.320312 15.816406 14.925781 30.585938 25.582031 43.914063l10.855469 13.558593c-5.6875 3.214844-11.542969 6.066407-17.496094 8.703126l-2.101562-2.527344c-21.550782-25.855469-36.945313-56.863282-44.511719-89.671875-7.554688-32.710938-22.417969-63.695313-43.015625-90.199219h11.679687c14.085938 14.648438 25.152344 31.566406 32.710938 50.488281zm-5.167969-158.710937c0-18.679688 3.761719-37.363282 10.863281-54.640625l23.832031 20.855469-34.695312 34.695312zm-.191406 23.726562 46.953125-46.953125 13.535156 11.839844-52.296875 52.296875-8.742188-8.742188c.253907-2.816406.445313-5.625.550782-8.441406zm-45.480469-98.519531 42.503906 12.144531c-8.246093 19.351563-12.625 40.375-12.792969 61.414063l-66.816406-36.445313zm-21.640625-.984375-28.6875 28.6875-28.6875-28.6875zm-135.550781 21.136719c7.101562 17.277343 10.863281 35.960937 10.863281 54.640625v.910156l-34.695312-34.695312zm2.863281 95.550781-52.296875-52.296875 13.535156-11.839844 46.953125 46.953125c.113282 2.816406.296875 5.632813.5625 8.441406zm11.167969-103.558594 42.503906-12.144531 37.113281 37.113281-66.816406 36.445313c-.167969-21.039063-4.554688-42.0625-12.800781-61.414063zm-53.582031 353.269532c-5.945313-2.636719-11.808594-5.488282-17.496094-8.703126l10.855468-13.558593c10.65625-13.328125 19.261719-28.105469 25.582032-43.914063l26.296875-65.734375c7.558593-18.914062 18.625-35.832031 32.710937-50.480469h11.679688c-20.597656 26.503907-35.460938 57.488282-43.015625 90.199219-7.566407 32.808594-22.960938 63.816407-44.511719 89.671875zm15.558593 6.242187c22.511719-27.488281 38.65625-60.214844 46.648438-94.847656 6.511719-28.234375 18.855469-55.113281 35.894531-78.546875-1.457031 60.714844-8.589844 121.410156-21.304688 180.753906l-.832031 3.886719c-20.613281-.648438-41-4.480469-60.40625-11.246094zm97.152344 79.191406-4.058594 12.167969h-36.476562l-4.058594-12.167969c-2.933594-8.808593-5.117187-17.800781-6.726563-26.894531 7.609376 3.773438 17.398438 7.0625 29.023438 7.0625s21.414062-3.289062 29.023438-7.0625c-1.609376 9.085938-3.792969 18.078125-6.726563 26.894531zm9.703125-59.832031c0 4.273438-.222656 8.519531-.511719 12.761719-5.023437 3.910156-16.410156 11.238281-31.488281 11.238281-14.910156 0-26.40625-7.351562-31.488281-11.273438-.136719-2.03125-.175781-4.078124-.246094-6.117187 7.871094.855469 15.78125 1.390625 23.734375 1.390625h6.472656l3.558594-16.632812c1.878906-8.773438 3.632812-17.574219 5.273438-26.398438 6.246093 2.878906 14.679687 6.109375 24.695312 8.335938zm3.097656 72 2.367188-7.113281c7-20.957031 10.535156-42.78125 10.535156-64.886719v-24.335938c2.617188.191407 5.265625.335938 8 .335938s5.382812-.144531 8-.335938v24.335938c0 22.105469 3.535156 43.929688 10.527344 64.886719l2.375 7.113281zm99.199219-12.167969-4.058594 12.167969h-36.476562l-4.058594-12.167969c-2.933594-8.808593-5.117187-17.800781-6.726563-26.894531 7.609376 3.773438 17.398438 7.0625 29.023438 7.0625s21.414062-3.289062 29.023438-7.0625c-1.609376 9.085938-3.792969 18.078125-6.726563 26.894531zm9.191406-47.070312c-5.023437 3.910156-16.410156 11.238281-31.488281 11.238281-14.910156 0-26.40625-7.351562-31.488281-11.273438-.289063-4.230468-.511719-8.46875-.511719-12.726562v-26.695312c10.023438-2.226563 18.457031-5.464844 24.695312-8.335938 1.640626 8.824219 3.394532 17.632812 5.273438 26.398438l3.558594 16.632812h6.472656c7.953125 0 15.863281-.535156 23.734375-1.398438-.070313 2.054688-.109375 4.109376-.246094 6.160157zm0 0"/></svg>