<svg xmlns="http://www.w3.org/2000/svg" viewBox="0 0 512 512">
  <path fill="#c6c5ca" d="M444.933 121.475l-23.364 23.364v238.587h46.728V144.839z"/>
  <path fill="#898890" d="M454.583 131.126l-9.65-9.651-23.364 23.364v238.587h19.301V144.839z"/>
  <path fill="#ffe477" d="M385.37 383.43h119.14v28.2H385.37z"/>
  <g fill="#ffb655">
    <path d="M385.37 383.43h36.2v28.2h-36.2zM425.63 411.63h38.603v92.87H425.63z"/>
  </g>
  <path fill="#ff7956" d="M425.63 411.63h15.1v92.87h-15.1z"/>
  <path fill="#c6c5ca" d="M385.363 504.5l.008-209.68-37.607-37.607H45.107L7.5 294.82V504.5z"/>
  <path fill="#898890" d="M70.183 257.213H45.107L7.5 294.82V504.5h25.076V294.82z"/>
  <path fill="#c6c5ca" d="M321.292 217.213H71.579v-84.857C71.579 63.4 127.479 7.5 196.436 7.5c68.956 0 124.857 55.9 124.857 124.857v84.856h-.001z"/>
  <path fill="#898890" d="M218.465 9.438C211.314 8.165 203.953 7.5 196.436 7.5 127.48 7.5 71.579 63.4 71.579 132.356v84.857h44.059v-84.857c0-61.439 44.378-112.513 102.827-122.918z"/>
  <path fill="#c6c5ca" d="M78.968 257.21h234.94V504.5H78.968z"/>
  <g fill="#898890">
    <path d="M78.968 257.21h40.961V504.5H78.968zM313.79 257.21h21.708V504.5H313.79zM112.43 134h168.01v30H112.43zM280.44 134h25.968v30H280.44z"/>
  </g>
  <path fill="#c6c5ca" d="M103.426 217.213c23.354 24.634 56.386 40 93.01 40s69.656-15.366 93.01-40h-186.02z"/>
  <g fill="#898890">
    <path d="M150.686 217.213h-47.26c23.354 24.634 56.386 40 93.01 40 8.073 0 15.971-.749 23.63-2.177-27.086-5.05-51.175-18.619-69.38-37.823zM82.196 257.213c12.354 51.645 58.81 90.041 114.24 90.041s101.886-38.396 114.24-90.041H82.196z"/>
  </g>
  <path fill="#57565c" d="M127.911 257.213H82.196c12.354 51.645 58.81 90.041 114.24 90.041 7.822 0 15.464-.765 22.858-2.224-45.004-8.876-80.772-43.459-91.383-87.817z"/>
  <g fill="#898890">
    <path d="M78.938 257.213H45.107L7.5 294.82v32.644c39.063.001 70.785-31.343 71.438-70.251zM313.934 257.213h33.831l37.607 37.607v32.644c-39.063.001-70.786-31.343-71.438-70.251z"/>
  </g>
  <g fill="#57565c">
    <path d="M31.13 294.82l37.607-37.607h-23.63L7.5 294.82v32.644c8.284 0 16.232-1.423 23.63-4.015V294.82zM337.564 257.213h-23.63c.652 38.907 32.375 70.251 71.438 70.251v-4.015c-27.485-9.632-47.294-35.58-47.808-66.236z"/>
  </g>
  <path fill="#898890" d="M7.5 419h71.47v85.5H7.5z"/>
  <path fill="#57565c" d="M7.5 419h25.08v85.5H7.5z"/>
  <path fill="#898890" d="M313.9 419h71.47v85.5H313.9z"/>
  <path fill="#57565c" d="M313.9 419.13h24.282v85.37H313.9z"/>
  <g fill="#fff">
    <path d="M271.95 382.2h15v15h-15zM271.95 357.2h15v15h-15zM271.95 407.2h15v65.33h-15zM266.265 79.928c6.957 9.242 11.935 19.573 14.794 30.706l14.528-3.731c-3.354-13.057-9.188-25.168-17.339-35.996l-11.983 9.021zM260.348 72.87l10.976-10.224a103.4627 103.4627 0 00-11.905-10.925l-9.245 11.813a88.317 88.317 0 0110.174 9.336zM250.593 45.529c-4.567-2.859-9.394-5.372-14.344-7.469l-5.852 13.812c4.223 1.789 8.34 3.933 12.237 6.373l7.959-12.716z"/>
  </g>
  <g fill="#1d1d1f">
    <path d="M330.69 336.31h15v15h-15zM330.69 386.31h15v15h-15zM330.69 361.31h15v15h-15zM47.27 334.77h15v15h-15zM47.27 359.77h15v15h-15zM47.27 384.77h15v19h-15zM512 375.926h-36.203V141.733l-30.864-30.864-30.864 30.864v234.193h-8.704v15H497v13.201h-91.635v15h12.766V512h53.603v-92.873H512v-43.201zm-59.567 0V160.889h-15v215.037h-8.364v-227.98l15.864-15.864 15.864 15.864v227.98h-8.364zm-19.302 89.614h23.603v8.707h-23.603v-8.707zm0-15v-8.706h23.603v8.706h-23.603zm0 46.46v-7.754h23.603V497h-23.603zm23.603-70.167h-23.603v-7.707h23.603v7.707z"/>
    <path d="M350.871 249.713h-92.229c12.391-6.411 23.837-14.794 33.972-25h36.178v-92.357C328.792 59.375 269.417 0 196.436 0 123.454 0 64.079 59.375 64.079 132.356v92.357h36.178c10.135 10.206 21.581 18.589 33.972 25H42l-42 42V512h392.872V291.714l-42.001-42.001zM377.867 411.5h-56.464V302.269c2.562 3.53 5.415 6.884 8.583 10.004 13.063 12.865 29.846 20.643 47.884 22.336l-.003 76.891zm.005-113.573l-.001 21.576c-28.707-3.419-51.872-26.162-55.831-54.79h22.619l33.213 33.214zm-173.936-48.449v-24.765h66.083c-19.016 14.722-41.801 23.298-66.083 24.765zM79.079 132.356c0-62.189 48.626-113.227 109.854-117.11V99h15V15.246c61.23 3.88 109.86 54.919 109.86 117.11v77.357H79.079v-77.357zm109.857 92.357v24.765c-24.283-1.467-47.067-10.043-66.083-24.765h66.083zm0 40V311h15v-46.287h96.81c-14.835 44.632-56.45 75.041-104.31 75.041s-89.475-30.409-104.31-75.041h96.81zm-140.723 0h22.618c-3.959 28.628-27.125 51.371-55.832 54.79v-21.576l33.214-33.214zM15 334.609c18.039-1.693 34.822-9.47 47.885-22.336 3.167-3.119 6.021-6.474 8.583-10.004V411.5H15v-76.891zM57.167 497v-44h-15v44H15v-70.5h56.468V497H57.167zm146.769 0v-56h-15v56H86.468v-36.5H137v-15H86.468V289.078c7.955 14.707 18.827 27.844 32.011 38.381 20.068 16.04 44.839 25.509 70.453 27.063v53.144h15v-53.144c25.616-1.554 50.39-11.023 70.459-27.064 13.184-10.538 24.057-23.674 32.011-38.382V497H203.936zm117.467 0v-70.5h56.463l-.001 14h-28.229v15h28.228l-.002 41.5h-56.459z"/>
    <path d="M104.929 171.5h84.003V197h15v-25.5h84.003v-45H104.929v45zm15-30h153.006v15H119.929v-15z"/>
  </g>
  <g fill="#fff">
    <path d="M277.07 277.646l-13.456-6.628c-3.259 6.617-7.479 12.712-12.541 18.118l10.949 10.253c6.073-6.484 11.136-13.8 15.048-21.743zM230.883 320.99l-5.755-13.852c-4.186 1.739-8.556 3.101-12.989 4.046l3.131 14.67c5.329-1.137 10.582-2.773 15.613-4.864zM254.106 306.88l-9.635-11.496c-3.481 2.917-7.244 5.529-11.186 7.764l7.397 13.049c4.732-2.682 9.248-5.817 13.424-9.317z"/>
  </g>
</svg>
