<svg id="Capa_1" enable-background="new 0 0 512.001 512.001" height="512" viewBox="0 0 512.001 512.001" width="512" xmlns="http://www.w3.org/2000/svg"><path d="m482 0v30h-31v-30h-90v30h-210v-30h-90v30h-31v-30h-30v90h30v-30h31v354.26l195 97.74 195-97.74v-354.26h31v30h30v-90zm-121 60v30h-210v-30zm-240-30v90h270v-90h30v120h-330v-120zm135 448.443-165-82.703v-215.74h330v215.74z"/><path d="m271 315c0 8.271-6.729 15-15 15s-15-6.729-15-15v-105h-90v105c0 57.897 47.103 105 105 105s105-47.103 105-105v-105h-90zm30 0v-75h30v75c0 41.355-33.645 75-75 75s-75-33.645-75-75v-75h30v75c0 24.813 20.187 45 45 45s45-20.187 45-45z"/></svg>