<svg xmlns="http://www.w3.org/2000/svg" viewBox="0 0 512 512">
  <path fill="#ffb655" d="M7.5 234.639h497v204.43H7.5z"/>
  <path fill="#ff7956" d="M305.989 336.855h-56.373l-15.73-15.73v-86.482h87.833v86.482z"/>
  <path fill="#ffb655" d="M7.5 72.932h497v161.71H7.5z"/>
  <g fill="#ff7956">
    <path d="M58.34 72.932h34.948v317.51H58.34zM163.25 72.932h34.948v317.51H163.25zM382.27 72.932h34.948v317.51H382.27z"/>
  </g>
  <path fill="#ffe477" d="M453.663 72.932v110.874h-71.195V72.932h-34.895v110.874H163.128V72.932h-34.895v110.874H58.337V72.932H7.5v161.711h497V72.932z"/>
  <path fill="#c6c5ca" d="M283.489 336.855h-56.373l-15.73-15.73v-86.482h87.833v86.482z"/>
  <path fill="#898890" d="M238.805 234.643h-27.419v86.482l15.73 15.73h27.419l-15.73-15.73z"/>
  <path fill="#ffe477" d="M299.219 234.643v50.837h48.354v102.75H163.128V285.48h48.258v-50.837H7.5v204.425h497V234.643H299.219zM128.233 388.23H58.337V285.48h69.896v102.75zm325.43 0h-71.195V285.48h71.195v102.75z"/>
  <g fill="#ffb655">
    <path d="M7.5 72.932H30v161.71H7.5zM347.57 72.932h22.5v110.87h-22.5zM453.66 72.932h22.5v110.87h-22.5zM128.23 72.932h22.5v110.87h-22.5zM128.23 285.48h22.5v102.75h-22.5zM453.66 285.48h22.5v102.75h-22.5zM347.57 285.48h22.5v102.75h-22.5zM299.22 234.639h22.5v50.837h-22.5z"/>
    <path d="M7.5 234.639H30v204.43H7.5z"/>
  </g>
  <g fill="#1d1d1f">
    <path d="M103.36 253.259h15v15h-15zM78.38 253.259h14.977v15H78.38zM128.36 253.259h15v15h-15zM153.36 253.259h15v15h-15zM342.24 253.259h15v15h-15zM392.24 253.259h15v15h-15zM417.24 253.259h14.977v15H417.24zM367.24 253.259h15v15h-15zM128.36 203.199h15v15h-15zM103.36 203.199h15v15h-15zM78.38 203.199h14.977v15H78.38zM153.36 203.199h15v15h-15zM293.09 98.85h15v15h-15zM268.09 98.85h15v15h-15zM318.09 98.85h15v15h-15zM318.09 350.76h15v15h-15zM293.09 350.76h15v15h-15zM268.09 350.76h15v15h-15zM285.99 203.199h15v15h-15zM260.99 203.199h15v15h-15zM211.01 203.199h14.977v15H211.01zM235.99 203.199h15v15h-15zM367.24 203.199h15v15h-15zM417.24 203.199h14.977v15H417.24zM392.24 203.199h15v15h-15zM342.24 203.199h15v15h-15z"/>
  </g>
  <g fill="#fff">
    <path d="M471.51 140.06h15v75.29h-15zM471.51 90.06h15v15h-15zM471.51 115.06h15v15h-15zM471.51 279.07h15v15h-15zM471.51 254.07h15v15h-15zM471.51 304.07h15v113.34h-15z"/>
  </g>
  <g fill="#1d1d1f">
    <path d="M0 65.433v381.135h512V65.433H0zm446.163 15v60.789h-32.29v15h32.29v20.084h-56.195v-62.457h43.8v-15h-43.8V80.433h56.195zm-106.09 0v60.789h-69.45v15h69.45v20.084H170.628v-20.084h29.389v-15h-29.389v-27.373H256v-15h-85.372V80.433h169.445zm-219.34 0v60.789H83.535v15h37.199v20.084H65.837v-62.457h27.448v-15H65.837V80.433h54.896zM497 242.143v189.425H39.19V383.9h-15v47.667H15V242.143h176.386v-15H39.19v-47.667h-15v47.667H15V80.433h35.837v110.873h84.896V80.433h19.895v110.873h199.444V80.433h19.895v110.873h86.195V80.433H497v146.71H319.219v15H497z"/>
    <path d="M247.8 260.76h15v45.569h-15zM374.968 395.73h86.195V277.98h-86.195v117.75zm71.195-102.75v57.777h-42.758v15h42.758v14.973h-56.195v-56.515h22.41v-15h-22.41V292.98h56.195zM135.733 277.98H50.837v117.75h84.896V277.98zM65.837 380.73v-56.515h27.448v-15H65.837V292.98h54.896v57.777H86.858v15h33.875v14.973H65.837z"/>
    <path d="M319.219 292.98h20.854v16.236h-17.924v15h17.924v56.514H170.628v-14.972h84.674v-15h-84.674V292.98h20.758v-15h-35.758v117.75h199.445V277.98h-35.854zM113.1 407.25h128.28v15H113.1z"/>
    <path d="M183.234 324.216h20.652v.016l20.124 20.124h62.585l20.124-20.124v-97.089H203.886v82.073h-20.652v15zm35.652-82.073h72.833v75.876l-11.336 11.337h-50.16l-11.336-11.337-.001-75.876z"/>
  </g>
</svg>
