<svg xmlns="http://www.w3.org/2000/svg" viewBox="0 0 64 64"><path d="M13.553 20.105a1 1 0 000 1.79l4.863 2.431a13.9 13.9 0 001.448 3.624l-2.8 7.708a1 1 0 001.383 1.242l7.032-3.516A13.909 13.909 0 0028 34.41V62h8V34.41a13.909 13.909 0 002.521-1.031l7.032 3.521a1 1 0 001.386-1.237l-2.8-7.708a13.9 13.9 0 001.448-3.624l4.86-2.431a1 1 0 000-1.79l-4.863-2.431a13.9 13.9 0 00-1.448-3.624l2.8-7.708A1 1 0 0045.55 5.11l-7.029 3.511a13.909 13.909 0 00-3.195-1.2L32.9 2.553a1.042 1.042 0 00-1.79 0l-2.436 4.863a13.909 13.909 0 00-3.195 1.205l-7.032-3.516a1 1 0 00-1.386 1.237l2.8 7.708a13.9 13.9 0 00-1.448 3.624zm2.683.895l1.81-.905c-.02.3-.046.6-.046.905s.026.6.046.905zM20 21a12 12 0 1112 12 12.013 12.013 0 01-12-12zm-.2 12.983l1.461-4.019a14.153 14.153 0 002.268 2.155zM34 60h-4v-2h2v-2h-2v-2h2v-2h-2v-2h4zm0-12h-4V34.84a12.58 12.58 0 004 0zm10.2-14.017l-3.729-1.864a14.153 14.153 0 002.268-2.155zM47.764 21l-1.81.905c.02-.3.046-.6.046-.905s-.026-.6-.046-.905zM44.2 8.017l-1.461 4.019a14.153 14.153 0 00-2.268-2.155zM32 5.236l.905 1.81C32.6 7.026 32.305 7 32 7s-.6.026-.905.046zM19.8 8.017l3.729 1.864a14.153 14.153 0 00-2.268 2.155z"/><path d="M32 28a7 7 0 10-7-7 7.009 7.009 0 007 7zm0-12a5 5 0 11-5 5 5.006 5.006 0 015-5z"/><path d="M32 24a3 3 0 10-3-3 3 3 0 003 3zm0-4a1 1 0 11-1 1 1 1 0 011-1zM13 8a3 3 0 01-3-3 1 1 0 00-2 0 3 3 0 01-3 3 1 1 0 000 2 3 3 0 013 3 1 1 0 002 0 3 3 0 013-3 1 1 0 000-2zm-4 2.031A4.988 4.988 0 007.969 9 4.988 4.988 0 009 7.969 4.988 4.988 0 0010.031 9 4.988 4.988 0 009 10.031zM60 28a4 4 0 01-4-4 1 1 0 00-2 0 4 4 0 01-4 4 1 1 0 000 2 4 4 0 014 4 1 1 0 002 0 4 4 0 014-4 1 1 0 000-2zm-5 2.69A6.044 6.044 0 0053.31 29 6.044 6.044 0 0055 27.31 6.044 6.044 0 0056.69 29 6.044 6.044 0 0055 30.69z"/></svg>