<?xml version="1.0"?>
<svg xmlns="http://www.w3.org/2000/svg" viewBox="0 0 64 64" width="512" height="512"><g id="outline"><path d="M13.553,20.105a1,1,0,0,0,0,1.79l4.863,2.431a13.9,13.9,0,0,0,1.448,3.624l-2.8,7.708A1,1,0,0,0,18.447,36.9l7.032-3.516A13.909,13.909,0,0,0,28,34.41V62h8V34.41a13.909,13.909,0,0,0,2.521-1.031L45.553,36.9a1,1,0,0,0,1.386-1.237l-2.8-7.708a13.9,13.9,0,0,0,1.448-3.624L50.447,21.9a1,1,0,0,0,0-1.79l-4.863-2.431a13.9,13.9,0,0,0-1.448-3.624l2.8-7.708a1,1,0,0,0-1.386-1.237L38.521,8.621a13.909,13.909,0,0,0-3.195-1.2L32.9,2.553a1.042,1.042,0,0,0-1.79,0L28.674,7.416a13.909,13.909,0,0,0-3.195,1.205L18.447,5.105a1,1,0,0,0-1.386,1.237l2.8,7.708a13.9,13.9,0,0,0-1.448,3.624ZM16.236,21l1.81-.905c-.02.3-.046.6-.046.905s.026.6.046.905ZM20,21A12,12,0,1,1,32,33,12.013,12.013,0,0,1,20,21Zm-.2,12.983,1.461-4.019a14.153,14.153,0,0,0,2.268,2.155ZM34,60H30V58h2V56H30V54h2V52H30V50h4Zm0-12H30V34.84a12.58,12.58,0,0,0,4,0ZM44.2,33.983l-3.729-1.864a14.153,14.153,0,0,0,2.268-2.155ZM47.764,21l-1.81.905c.02-.3.046-.6.046-.905s-.026-.6-.046-.905ZM44.2,8.017l-1.461,4.019a14.153,14.153,0,0,0-2.268-2.155ZM32,5.236l.905,1.81C32.6,7.026,32.305,7,32,7s-.6.026-.905.046ZM19.8,8.017l3.729,1.864a14.153,14.153,0,0,0-2.268,2.155Z"/><path d="M32,28a7,7,0,1,0-7-7A7.009,7.009,0,0,0,32,28Zm0-12a5,5,0,1,1-5,5A5.006,5.006,0,0,1,32,16Z"/><path d="M32,24a3,3,0,1,0-3-3A3,3,0,0,0,32,24Zm0-4a1,1,0,1,1-1,1A1,1,0,0,1,32,20Z"/><path d="M13,8a3,3,0,0,1-3-3A1,1,0,0,0,8,5,3,3,0,0,1,5,8a1,1,0,0,0,0,2,3,3,0,0,1,3,3,1,1,0,0,0,2,0,3,3,0,0,1,3-3,1,1,0,0,0,0-2ZM9,10.031A4.988,4.988,0,0,0,7.969,9,4.988,4.988,0,0,0,9,7.969,4.988,4.988,0,0,0,10.031,9,4.988,4.988,0,0,0,9,10.031Z"/><path d="M60,28a4,4,0,0,1-4-4,1,1,0,0,0-2,0,4,4,0,0,1-4,4,1,1,0,0,0,0,2,4,4,0,0,1,4,4,1,1,0,0,0,2,0,4,4,0,0,1,4-4,1,1,0,0,0,0-2Zm-5,2.69A6.044,6.044,0,0,0,53.31,29,6.044,6.044,0,0,0,55,27.31,6.044,6.044,0,0,0,56.69,29,6.044,6.044,0,0,0,55,30.69Z"/></g></svg>
