<svg width="20" height="20" xmlns="http://www.w3.org/2000/svg">
 <!-- Created with SVG Editor - http://github.com/mzalive/SVG Editor/ -->

 <g>
  <title>background</title>
  <rect fill="none" id="canvas_background" height="22" width="22" y="-1" x="-1"/>
  <g display="none" overflow="visible" y="0" x="0" height="100%" width="100%" id="canvasGrid">
   <rect fill="url(#gridpattern)" stroke-width="0" y="0" x="0" height="100%" width="100%"/>
  </g>
 </g>
 <g>
  <title>Layer 1</title>
  <g stroke="null" id="svg_5">
   <path stroke="null" id="svg_4" d="m18.40955,4.528731c-0.873281,0.27043 -1.852748,0.184485 -2.6539,-0.229603l-0.464154,-0.239983l0.999693,-1.627565c0.08834,-0.143934 0.135186,-0.307798 0.135186,-0.474153c0,-0.526606 -0.460584,-0.955226 -1.02676,-0.955226l-0.078226,0c-0.366743,0 -0.707905,0.183655 -0.890235,0.479551l-5.667106,9.187717l-1.251772,-1.982973l1.088329,-0.591515l-0.93842,-1.529718l-0.61436,0.333956c-0.213264,-0.236938 -0.50401,-0.402878 -0.826881,-0.472216l-0.796542,-3.63891l-3.922329,-1.659259l0,3.974803l2.938847,2.269457c-0.047441,0.136876 -0.080011,0.280257 -0.080011,0.431665c0,0.172306 0.037329,0.33963 0.102616,0.498511l-0.634437,0.345027l0.93842,1.529718l1.15793,-0.629298l1.785378,2.827895l-3.03834,4.925877c-0.123437,0.195419 -0.156899,0.423499 -0.093842,0.642307c0.063354,0.220607 0.216536,0.404815 0.431882,0.51844c0.143365,0.075704 0.300265,0.111964 0.455677,0.111688c0.318557,0 0.62953,-0.151962 0.801598,-0.42433l2.504883,-4.091749l2.585192,4.095209c0.170581,0.269738 0.480959,0.421146 0.798921,0.421146c0.155412,0 0.31246,-0.035984 0.456569,-0.112241c0.215346,-0.113348 0.368527,-0.297557 0.431882,-0.518164c0.063057,-0.218531 0.029595,-0.446612 -0.093842,-0.642307l-3.129505,-4.957293l3.001606,-4.902902c0.077037,-0.126219 0.221741,-0.204414 0.377748,-0.204414l0.049226,0c0.239736,0 0.434707,0.18144 0.434707,0.4044c0,0.062694 -0.015913,0.125112 -0.045954,0.181163l-1.96979,3.666036l1.611822,0c2.244178,0 4.261409,-1.160471 5.264969,-3.028296c0.406302,-0.756486 0.62135,-1.603622 0.62135,-2.44979l0,-1.718216l-0.758023,0.235554zm-3.087864,-2.95965l0.078227,0c0.22992,0 0.417307,0.173967 0.417307,0.388346c0,0.0674 -0.018887,0.134385 -0.055175,0.192927l-0.34265,0.557884l-0.789998,-0.408414l0.330158,-0.535463c0.07436,-0.120407 0.212818,-0.19528 0.362132,-0.19528zm-0.995677,1.222196l0.791336,0.408967l-0.358563,0.583626l-0.792526,-0.409521l0.359753,-0.583073zm-8.016132,12.995473l3.635747,-5.894112l0.502523,0.28427l-3.608679,5.894389l-0.52959,-0.284547zm0.228136,0.777107l-0.301603,0.492421l-0.533011,-0.286346l0.30309,-0.491453l0.531524,0.285378zm-0.941841,-10.149033c-0.085811,0.015224 -0.167756,0.039859 -0.247916,0.067954l-2.773173,-4.277341l2.314522,0.97903l0.706566,3.230357zm-3.484945,-1.577742l0,-2.249666l2.720824,4.196932c-0.030785,0.027541 -0.057555,0.058127 -0.08596,0.087883l-2.634864,-2.035149zm2.859133,2.967677c0,-0.468755 0.409871,-0.85032 0.913733,-0.85032c0.236018,0 0.458353,0.08899 0.625514,0.237215l-1.508611,0.819734c-0.018888,-0.0674 -0.030636,-0.136323 -0.030636,-0.206629zm-0.313203,1.04989l2.780758,-1.511034l0.33447,0.545013l-2.780758,1.511034l-0.33447,-0.545013zm1.794599,0.408137l0.534201,-0.290221l1.428748,2.263229l-0.354398,0.574769l-1.60855,-2.547777zm-1.140679,8.707198c-0.072129,-0.038198 -0.123288,-0.09937 -0.144258,-0.171753c-0.020524,-0.07086 -0.009518,-0.145042 0.032272,-0.210781l0.20092,-0.325652l0.534944,0.287315l-0.194376,0.317486c-0.086258,0.136322 -0.278998,0.182271 -0.429502,0.103384zm5.756189,-1.396163l0.535836,-0.288007l0.308445,0.488685l-0.535688,0.288007l-0.308593,-0.488685zm1.389486,1.224411c-0.020969,0.072659 -0.072129,0.133831 -0.143961,0.171476c-0.150207,0.079441 -0.342947,0.033216 -0.429502,-0.103384l-0.198838,-0.314856l0.535688,-0.288007l0.205977,0.326205c0.040154,0.063525 0.05116,0.137706 0.030636,0.208566zm-1.162243,-2.000964l-0.535688,0.287869l-1.637997,-2.594555l0.353209,-0.577121l1.820476,2.883808zm2.88962,-7.720417c0.072129,-0.134385 0.110201,-0.284547 0.110201,-0.434571c0,-0.535602 -0.468466,-0.97128 -1.043862,-0.97128l-0.049226,0c-0.374327,0 -0.721885,0.187945 -0.90704,0.490345l-1.544304,2.522311l-0.500739,-0.283163l3.414155,-5.534691l1.79668,0.928792c0.574058,0.297141 1.226192,0.450072 1.880112,0.454639l0,0.93931c0,0.79676 -0.289408,1.581617 -0.814983,2.210361c-0.738392,0.883397 -1.850963,1.389935 -3.053509,1.389935l-0.207315,0l0.91983,-1.711988zm4.374287,-2.065181c0,0.758562 -0.192443,1.517816 -0.557103,2.196106c-0.899753,1.674621 -2.708331,2.714823 -4.72006,2.714823l-0.626109,0l0.304578,-0.56688l0.511893,0c1.391717,0 2.679777,-0.586117 3.53432,-1.608467c0.608263,-0.727976 0.943328,-1.636423 0.943328,-2.558433l0,-0.982075c0.20553,-0.028372 0.41002,-0.0674 0.609155,-0.126634l0,0.931559zm0,0"/>
  </g>
 </g>
</svg>