<svg width="10" height="10" xmlns="http://www.w3.org/2000/svg">
 <!-- Created with SVG Editor - http://github.com/mzalive/SVG Editor/ -->

 <g>
  <title>background</title>
  <rect fill="none" id="canvas_background" height="12" width="12" y="-1" x="-1"/>
  <g display="none" overflow="visible" y="0" x="0" height="100%" width="100%" id="canvasGrid">
   <rect fill="url(#gridpattern)" stroke-width="0" y="0" x="0" height="100%" width="100%"/>
  </g>
 </g>
 <g>
  <title>Layer 1</title>
  <g stroke="null" id="svg_5">
   <path stroke="null" id="svg_4" d="m9.379477,2.087555c-0.476047,0.147418 -1.009977,0.100567 -1.446705,-0.125162l-0.253021,-0.13082l0.544956,-0.887225c0.048156,-0.078462 0.073693,-0.167788 0.073693,-0.258472c0,-0.287066 -0.251075,-0.520717 -0.559711,-0.520717l-0.042643,0c-0.19992,0 -0.385896,0.100115 -0.485289,0.261415l-3.089276,5.008446l-0.682371,-1.080966l0.593274,-0.322449l-0.511555,-0.833886l-0.334903,0.182047c-0.116255,-0.129161 -0.274748,-0.219619 -0.450753,-0.257416l-0.434214,-1.983657l-2.138156,-0.904502l0,2.166761l1.602036,1.237136c-0.025861,0.074614 -0.043616,0.152775 -0.043616,0.235311c0,0.093928 0.020349,0.18514 0.055939,0.27175l-0.345847,0.188083l0.511555,0.833886l0.631216,-0.343045l0.973252,1.541553l-1.656272,2.685214c-0.067289,0.106527 -0.085529,0.23086 -0.051155,0.350137c0.034536,0.120258 0.118039,0.220675 0.235429,0.282614c0.078152,0.041268 0.163682,0.061035 0.2484,0.060884c0.173653,0 0.343172,-0.082838 0.436971,-0.231312l1.365472,-2.230511l1.40925,2.232397c0.092988,0.147041 0.262182,0.229577 0.435511,0.229577c0.084719,0 0.170329,-0.019616 0.248887,-0.061185c0.11739,-0.061789 0.200893,-0.162205 0.235429,-0.282463c0.034374,-0.119127 0.016133,-0.243459 -0.051155,-0.350137l-1.705969,-2.70234l1.636248,-2.67269c0.041995,-0.068805 0.120876,-0.111431 0.205919,-0.111431l0.026834,0c0.130686,0 0.236969,0.098907 0.236969,0.220448c0,0.034176 -0.008674,0.068202 -0.025051,0.098757l-1.07378,1.998444l0.878643,0c1.223355,0 2.322997,-0.632601 2.870061,-1.650797c0.221485,-0.412379 0.338713,-0.874173 0.338713,-1.33544l0,-0.936641l-0.413217,0.128406zm-1.683269,-1.613377l0.042643,0c0.125335,0 0.227484,0.094834 0.227484,0.211697c0,0.036741 -0.010296,0.073256 -0.030077,0.105169l-0.186787,0.304116l-0.430647,-0.222636l0.179977,-0.291894c0.040535,-0.065637 0.116012,-0.106452 0.197407,-0.106452zm-0.542768,0.666249l0.431376,0.222938l-0.195461,0.318149l-0.432025,-0.22324l0.19611,-0.317847zm-4.369786,7.084145l1.981933,-3.213022l0.273938,0.154962l-1.967178,3.213173l-0.288692,-0.155113zm0.124362,0.42362l-0.164411,0.268431l-0.290557,-0.156094l0.165222,-0.267903l0.289746,0.155566zm-0.51342,-5.532482c-0.046778,0.008299 -0.091448,0.021728 -0.135145,0.037043l-1.511723,-2.331682l1.261702,0.533693l0.385166,1.760946zm-1.899727,-0.860065l0,-1.226347l1.483187,2.287849c-0.016782,0.015013 -0.031374,0.031687 -0.046859,0.047907l-1.436328,-1.109409zm1.558582,1.617752c0,-0.25553 0.223431,-0.46353 0.498098,-0.46353c0.128659,0 0.24986,0.048511 0.340983,0.129311l-0.82238,0.446857c-0.010296,-0.036741 -0.016701,-0.074313 -0.016701,-0.112638zm-0.170735,0.57232l1.515858,-0.823701l0.182328,0.2971l-1.515858,0.823701l-0.182328,-0.2971zm0.978279,0.222485l0.291206,-0.158207l0.778845,1.233741l-0.193191,0.31332l-0.87686,-1.388854zm-0.621812,4.746503c-0.039319,-0.020823 -0.067207,-0.054169 -0.078638,-0.093626c-0.011188,-0.038627 -0.005189,-0.079066 0.017592,-0.114902l0.109527,-0.177521l0.291611,0.156622l-0.105959,0.173069c-0.047021,0.074313 -0.152089,0.09936 -0.234132,0.056357zm3.137837,-0.761082l0.292097,-0.157l0.168141,0.266394l-0.292016,0.156999l-0.168221,-0.266394zm0.757442,0.667456c-0.011431,0.039608 -0.039319,0.072955 -0.078476,0.093475c-0.081881,0.043305 -0.186949,0.018107 -0.234132,-0.056357l-0.108391,-0.171636l0.292016,-0.157l0.112283,0.177822c0.021889,0.034629 0.027888,0.075067 0.016701,0.113695zm-0.633567,-1.090774l-0.292016,0.156924l-0.892911,-1.414354l0.192543,-0.314603l0.992385,1.572033zm1.575201,-4.208585c0.039319,-0.073256 0.060073,-0.155113 0.060073,-0.236895c0,-0.29197 -0.255372,-0.529468 -0.569034,-0.529468l-0.026834,0c-0.204055,0 -0.393517,0.102453 -0.49445,0.267299l-0.841837,1.374973l-0.272965,-0.154359l1.861138,-3.017093l0.979414,0.506307c0.312933,0.161979 0.668427,0.245345 1.024894,0.247835l0,0.512041c0,0.434333 -0.157763,0.862178 -0.444267,1.204921c-0.402515,0.481561 -1.009004,0.757687 -1.664541,0.757687l-0.113012,0l0.501421,-0.933246zm2.384529,-1.12578c0,0.41351 -0.104905,0.827398 -0.30369,1.19715c-0.490477,0.912876 -1.476377,1.479916 -2.573018,1.479916l-0.341307,0l0.166033,-0.30902l0.279045,0c0.758659,0 1.460811,-0.319507 1.926643,-0.876814c0.331579,-0.396837 0.514231,-0.892054 0.514231,-1.394664l0,-0.535353c0.11204,-0.015466 0.223512,-0.036741 0.332065,-0.069031l0,0.507815zm0,0"/>
  </g>
 </g>
</svg>