<svg xmlns="http://www.w3.org/2000/svg" viewBox="-15 0 495 495.992"><path d="M444.586 99.5352c-22.9376 7.6328-48.6641 5.207-69.707-6.4805l-12.1915-6.7734 26.2578-45.9376c2.3203-4.0624 3.5508-8.6874 3.5508-13.3828C392.496 12.0977 380.3984 0 365.5273 0h-2.0546c-9.6329 0-18.5938 5.1836-23.3829 13.5352L191.2383 272.8555l-32.879-55.9688 28.586-16.6953-24.6484-43.1758-16.1367 9.4258c-5.6016-6.6875-13.2383-11.371-21.7188-13.3281l-20.9219-102.707L.4961 3.5742v112.1874l77.1914 64.0547c-1.246 3.8633-2.1016 7.9102-2.1016 12.1836 0 4.8633.9805 9.586 2.6954 14.0703l-16.6641 9.7383 24.6484 43.1758 30.414-17.7617 46.8946 79.8164-79.8047 139.0312c-3.2422 5.5156-4.121 11.9531-2.4648 18.129 1.664 6.2265 5.6875 11.4257 11.3437 14.6327 3.7657 2.1368 7.8868 3.1602 11.9688 3.1524 8.3672 0 16.5351-4.289 21.0547-11.9766l65.793-115.4883 67.9023 115.586c4.4805 7.6133 12.6328 11.8867 20.9844 11.8867 4.082 0 8.207-1.0156 11.9922-3.168 5.6562-3.1992 9.6796-8.3984 11.3437-14.625 1.6563-6.168.7773-12.6054-2.4648-18.1289l-82.1993-139.918 78.8399-138.3828c2.0234-3.5625 5.8242-5.7695 9.9219-5.7695h1.293c6.2968 0 11.4179 5.121 11.4179 11.414 0 1.7696-.418 3.5313-1.207 5.1133L267.5508 296h42.336c58.9452 0 111.9296-32.754 138.289-85.4727 10.6719-21.3515 16.3203-45.2617 16.3203-69.1445v-48.496zM363.4804 16h2.0547c6.039 0 10.9609 4.9102 10.9609 10.961 0 1.9023-.4961 3.793-1.4492 5.4453l-9 15.746-20.75-11.5273 8.6718-15.1133C355.922 18.1133 359.5586 16 363.4805 16zM337.328 50.496l20.7852 11.543-9.418 16.4727-20.8164-11.5586zM126.7773 417.289l95.4961-166.3593 13.1993 8.0234-94.7852 166.3672zm5.9922 21.9337l-7.9218 13.8984-14-8.082 7.9609-13.8711zm-24.7382-286.4532c-2.254.4297-4.4063 1.125-6.5118 1.918L28.6797 33.9609l60.793 27.6328zM16.496 108.2383V44.7422l71.4648 118.457c-.8086.7774-1.5117 1.6406-2.2578 2.4805zM91.5938 192c0-13.2305 10.7656-24 24-24 6.1992 0 12.039 2.5117 16.4296 6.6953l-39.625 23.1367c-.496-1.9023-.8046-3.8476-.8046-5.832zm-8.2266 29.6328l73.039-42.6484 8.7852 15.3828-73.039 42.6484zm47.1367 11.5195l14.0313-8.1914 37.5273 63.879-9.3086 16.2226zm-29.961 245.7579c-1.8945-1.0782-3.2382-2.8047-3.789-4.8477-.539-2-.25-4.0938.8477-5.9492l5.2773-9.1914 14.0508 8.1093-5.1055 8.961c-2.2656 3.8476-7.3281 5.1445-11.2812 2.918zm151.1915-39.4063l14.0742-8.1289 8.1016 13.793-14.0704 8.1289zm36.496 34.5586c-.5507 2.0508-1.8945 3.7773-3.7812 4.8398-3.9453 2.2422-9.0078.9375-11.2812-2.918l-5.2227-8.8866 14.0703-8.129 5.4102 9.207c1.0547 1.793 1.3437 3.8868.8047 5.8868zm-30.5273-56.4766l-14.0703 8.125-43.0234-73.2304 9.2773-16.289zm75.8985-217.9062c1.8945-3.793 2.8945-8.0313 2.8945-12.2656 0-15.1172-12.3047-27.4141-27.418-27.4141h-1.293c-9.832 0-18.9609 5.3047-23.8242 13.8398l-40.5625 71.1914-13.1523-7.9921 89.6758-156.2149 47.1914 26.2149c15.0781 8.3867 32.207 12.703 49.3828 12.832v26.5117c0 22.4883-7.6016 44.6406-21.4063 62.3867C375.6953 233.7031 346.4727 248 314.8868 248h-5.4454zm114.8945-58.289c0 21.41-5.0547 42.8398-14.6328 61.9843C410.2305 250.6406 362.7266 280 309.8867 280h-16.4453l8-16h13.4453c36.5547 0 70.3867-16.543 92.832-45.3984 15.9766-20.547 24.7774-46.1875 24.7774-72.211V118.672c5.3984-.8008 10.7695-1.9024 16-3.5742zm0 0"/></svg>