<svg width="15" height="15" xmlns="http://www.w3.org/2000/svg">
 <!-- Created with SVG Editor - http://github.com/mzalive/SVG Editor/ -->

 <g>
  <title>background</title>
  <rect fill="none" id="canvas_background" height="17" width="17" y="-1" x="-1"/>
  <g display="none" overflow="visible" y="0" x="0" height="100%" width="100%" id="canvasGrid">
   <rect fill="url(#gridpattern)" stroke-width="0" y="0" x="0" height="100%" width="100%"/>
  </g>
 </g>
 <g>
  <title>Layer 1</title>
  <g stroke="null" id="svg_5">
   <path stroke="null" id="svg_4" d="m14.186229,3.090138c-0.724318,0.224301 -1.536709,0.153016 -2.201202,-0.190438l-0.384979,-0.199047l0.829167,-1.349938c0.073271,-0.119382 0.112126,-0.255294 0.112126,-0.393273c0,-0.436778 -0.382018,-0.792285 -0.851616,-0.792285l-0.064882,0c-0.304184,0 -0.587152,0.152327 -0.73838,0.39775l-4.70042,7.62049l-1.038247,-1.64472l0.902684,-0.490615l-0.778346,-1.268781l-0.509564,0.27699c-0.176886,-0.196522 -0.418037,-0.334156 -0.685833,-0.391666l-0.660669,-3.01819l-3.253264,-1.376225l0,3.296787l2.437543,1.882337c-0.039349,0.113528 -0.066363,0.232451 -0.066363,0.358032c0,0.142914 0.030961,0.281696 0.085112,0.413476l-0.526216,0.286173l0.778346,1.268781l0.960412,-0.521953l1.480831,2.345517l-2.520065,4.085628c-0.102382,0.162085 -0.130135,0.351259 -0.077834,0.532743c0.052548,0.182976 0.179599,0.335763 0.358212,0.430006c0.11891,0.062791 0.249046,0.092866 0.377948,0.092636c0.264218,0 0.522145,-0.12604 0.664863,-0.351948l2.077604,-3.393785l2.144214,3.396655c0.141484,0.223727 0.398918,0.349308 0.662642,0.349308c0.128902,0 0.259161,-0.029846 0.378688,-0.093095c0.178612,-0.094014 0.305664,-0.2468 0.358212,-0.429776c0.052301,-0.181254 0.024547,-0.370429 -0.077834,-0.532743l-2.595679,-4.111685l2.489597,-4.066573c0.063896,-0.104689 0.183917,-0.169546 0.313312,-0.169546l0.040829,0c0.198842,0 0.360555,0.15049 0.360555,0.335418c0,0.052 -0.013198,0.103771 -0.038115,0.150261l-1.633786,3.040689l1.33688,0c1.861369,0 3.534505,-0.962519 4.366878,-2.511734c0.336996,-0.627445 0.515361,-1.330079 0.515361,-2.031909l0,-1.425125l-0.628721,0.195374zm-2.56114,-2.454798l0.064883,0c0.190701,0 0.346123,0.144292 0.346123,0.322103c0,0.055903 -0.015665,0.111462 -0.045763,0.160018l-0.284201,0.462721l-0.655241,-0.338747l0.27384,-0.444125c0.061675,-0.099868 0.176515,-0.16197 0.30036,-0.16197zm-0.825836,1.013716l0.656351,0.339206l-0.2974,0.484072l-0.657338,-0.339665l0.298387,-0.483613zm-6.648752,10.778725l3.015566,-4.888703l0.416804,0.23578l-2.993116,4.888933l-0.439254,-0.23601zm0.189221,0.64455l-0.250156,0.408425l-0.442091,-0.237502l0.251389,-0.407621l0.440857,0.236698zm-0.781183,-8.417826c-0.071174,0.012627 -0.13914,0.03306 -0.205626,0.056362l-2.300129,-3.547719l1.919714,0.812029l0.586041,2.679328zm-2.890488,-1.308613l0,-1.865921l2.25671,3.481026c-0.025534,0.022843 -0.047737,0.048212 -0.071297,0.072892l-2.185413,-1.687996zm2.371426,2.461455c0,-0.388796 0.339956,-0.705274 0.75787,-0.705274c0.195758,0 0.380168,0.07381 0.518815,0.196751l-1.251274,0.679905c-0.015666,-0.055903 -0.02541,-0.113069 -0.02541,-0.171382zm-0.259777,0.870802l2.30642,-1.253284l0.277417,0.452046l-2.30642,1.253284l-0.277417,-0.452045zm1.488479,0.338518l0.443077,-0.240716l1.185035,1.877171l-0.293946,0.476726l-1.334166,-2.113181zm-0.946104,7.221937c-0.059825,-0.031682 -0.102258,-0.08242 -0.119651,-0.142455c-0.017023,-0.058773 -0.007894,-0.120301 0.026767,-0.174826l0.166648,-0.270102l0.443694,0.238305l-0.16122,0.26333c-0.071544,0.113069 -0.231407,0.151179 -0.356238,0.085749zm4.774307,-1.158008l0.444434,-0.238879l0.255831,0.405326l-0.444311,0.238879l-0.255953,-0.405325zm1.15247,1.015553c-0.017392,0.060265 -0.059825,0.111002 -0.119404,0.142225c-0.124585,0.06589 -0.284448,0.02755 -0.356238,-0.085749l-0.164921,-0.261148l0.444311,-0.238879l0.170841,0.270561c0.033305,0.052689 0.042433,0.114217 0.02541,0.17299zm-0.963989,-1.659643l-0.444311,0.238764l-1.35859,-2.15198l0.292959,-0.478677l1.509942,2.391892zm2.396713,-6.40348c0.059825,-0.111462 0.091403,-0.23601 0.091403,-0.360443c0,-0.44424 -0.388556,-0.805601 -0.865802,-0.805601l-0.040829,0c-0.310475,0 -0.598747,0.155886 -0.752319,0.406703l-1.280879,2.092059l-0.415324,-0.234862l2.831773,-4.590592l1.490205,0.77036c0.476136,0.246456 1.01703,0.373299 1.559405,0.377087l0,0.779084c0,0.66085 -0.240041,1.311827 -0.675964,1.833321c-0.612439,0.732708 -1.535228,1.152842 -2.532646,1.152842l-0.171951,0l0.762927,-1.41996zm3.628128,-1.712906c0,0.629168 -0.159616,1.258909 -0.462073,1.821498c-0.746275,1.388966 -2.246348,2.251733 -3.914919,2.251733l-0.519308,0l0.252623,-0.470182l0.424575,0c1.15432,0 2.222665,-0.486138 2.931441,-1.334097c0.504506,-0.603799 0.782416,-1.357284 0.782416,-2.12202l0,-0.814554c0.170471,-0.023532 0.340079,-0.055903 0.505246,-0.105033l0,0.772655zm0,0"/>
  </g>
 </g>
</svg>