<svg width="40" height="40" xmlns="http://www.w3.org/2000/svg">
 <!-- Created with SVG Editor - http://github.com/mzalive/SVG Editor/ -->

 <g>
  <title>background</title>
  <rect fill="#fff" id="canvas_background" height="42" width="42" y="-1" x="-1"/>
  <g display="none" overflow="visible" y="0" x="0" height="100%" width="100%" id="canvasGrid">
   <rect fill="url(#gridpattern)" stroke-width="0" y="0" x="0" height="100%" width="100%"/>
  </g>
 </g>
 <g>
  <title>Layer 1</title>
  <g id="svg_5">
   <path id="svg_4" d="m33.388175,8.228422c-1.664229,0.553798 -3.530819,0.377796 -5.057591,-0.47019l-0.884547,-0.491447l1.905134,-3.332993c0.168351,-0.294755 0.257627,-0.630321 0.257627,-0.970989c0,-1.078405 -0.877744,-1.95615 -1.956717,-1.95615l-0.149077,0c-0.698909,0 -1.349069,0.376095 -1.69654,0.982043l-10.799919,18.814974l-2.385527,-4.06081l2.074051,-1.211328l-1.788366,-3.132618l-1.170799,0.683888c-0.406422,-0.485211 -0.960503,-0.82503 -1.575803,-0.967022l-1.517986,-7.451904l-7.474861,-3.397896l0,8.139759l5.600619,4.647485c-0.09041,0.2803 -0.152479,0.573921 -0.152479,0.88398c0,0.352855 0.071138,0.695507 0.195558,1.020871l-1.20906,0.70656l1.788367,3.132618l2.206691,-1.288701l3.402431,5.791075l-5.790226,10.087406c-0.235237,0.400186 -0.299006,0.867259 -0.178836,1.315342c0.120736,0.451768 0.412656,0.828997 0.823045,1.061683c0.273214,0.15503 0.572221,0.229285 0.868392,0.228719c0.607081,0 1.199707,-0.311193 1.527622,-0.86896l4.773605,-8.379247l4.926652,8.386333c0.32508,0.552381 0.916573,0.86244 1.52252,0.86244c0.296172,0 0.595461,-0.073689 0.870093,-0.229852c0.410389,-0.232119 0.702309,-0.609348 0.823045,-1.061116c0.120169,-0.447517 0.0564,-0.914589 -0.178836,-1.315342l-5.963961,-10.151742l5.720221,-10.040359c0.146811,-0.258477 0.422576,-0.418608 0.719882,-0.418608l0.093811,0c0.456869,0 0.82843,0.37156 0.82843,0.828147c0,0.128388 -0.030325,0.25621 -0.087576,0.370994l-3.753869,7.507454l3.071682,0c4.276774,0 8.121054,-2.376459 10.033557,-6.201465c0.774298,-1.549162 1.184119,-3.283961 1.184119,-5.016778l0,-3.518632l-1.44458,0.482377zm-5.884604,-6.06089l0.149078,0c0.438164,0 0.79527,0.356256 0.79527,0.795271c0,0.138024 -0.035994,0.275199 -0.105148,0.395084l-0.652995,1.142457l-1.505515,-0.836366l0.629188,-1.096543c0.141709,-0.246574 0.405571,-0.399903 0.690122,-0.399903zm-1.897482,2.502862l1.508066,0.8375l-0.68332,1.195173l-1.510333,-0.838633l0.685588,-1.19404zm-15.276504,26.612648l6.928715,-12.070197l0.957669,0.58214l-6.877133,12.070764l-1.009251,-0.582707zm0.434763,1.591391l-0.574771,1.0084l-1.015769,-0.586391l0.577605,-1.006416l1.012935,0.584408zm-1.794885,-20.783595c-0.163532,0.031176 -0.319695,0.081624 -0.472458,0.139158l-5.284891,-8.75931l4.410831,2.004897l1.346518,6.615255zm-6.64133,-3.230963l0,-4.606956l5.185129,8.594645c-0.058668,0.0564 -0.109683,0.119035 -0.163815,0.17997l-5.021314,-4.167659zm5.448708,6.077328c0,-0.959936 0.7811,-1.741319 1.741319,-1.741319c0.449784,0 0.873493,0.182238 1.192055,0.485778l-2.87499,1.678684c-0.035995,-0.138024 -0.058384,-0.279167 -0.058384,-0.423143zm-0.596878,2.150007l5.299346,-3.094356l0.637407,1.1161l-5.299347,3.094355l-0.637406,-1.116099zm3.420003,0.835799l1.018037,-0.594327l2.722795,4.634731l-0.675384,1.177034l-3.065447,-5.217439zm-2.173815,17.830948c-0.137458,-0.078224 -0.234953,-0.203494 -0.274915,-0.351722c-0.039112,-0.14511 -0.018139,-0.297022 0.061501,-0.431645l0.382898,-0.666882l1.019454,0.588376l-0.370427,0.650161c-0.164383,0.279166 -0.531692,0.373261 -0.818511,0.211713zm10.969686,-2.859119l1.021154,-0.589793l0.587809,1.000748l-1.020871,0.589792l-0.588091,-1.000748zm2.647972,2.507397c-0.039962,0.148794 -0.137458,0.274065 -0.274348,0.351154c-0.286252,0.162682 -0.653561,0.06802 -0.818511,-0.211713l-0.37893,-0.644775l1.020871,-0.589793l0.392534,0.668016c0.076523,0.130089 0.097496,0.282001 0.058384,0.427111zm-2.21491,-4.097654l-1.020871,0.589509l-3.121563,-5.313234l0.673117,-1.181852l3.469318,5.905577zm5.506807,-15.810179c0.137458,-0.275199 0.210013,-0.582707 0.210013,-0.889932c0,-1.096827 -0.892766,-1.989026 -1.989309,-1.989026l-0.093811,0c-0.713363,0 -1.37571,0.384882 -1.728565,1.004149l-2.94301,5.16529l-0.954268,-0.579873l6.506423,-11.334161l3.42397,1.902017c1.093993,0.608498 2.33678,0.921675 3.582968,0.931027l0,1.923557c0,1.631636 -0.551531,3.238899 -1.55313,4.526466c-1.407169,1.809056 -3.527417,2.846365 -5.819134,2.846365l-0.395084,0l1.752939,-3.505878zm8.336168,-4.229161c0,1.553413 -0.366742,3.108243 -1.061683,4.497274c-1.714678,3.429355 -5.161322,5.559524 -8.995114,5.559524l-1.193189,0l0.58044,-1.160879l0.975524,0c2.652224,0 5.106905,-1.200274 6.735424,-3.293882c1.159179,-1.490777 1.797719,-3.351132 1.797719,-5.239262l0,-2.011133c0.391684,-0.058101 0.781384,-0.138024 1.160879,-0.259327l0,1.907685zm0,0"/>
  </g>
 </g>
</svg>